<svg xmlns="http://www.w3.org/2000/svg" width="708" height="130" fill="none" viewBox="0 0 708 130">
  <path fill="#000" d="M453.253 5.75h17.75V101h-17.75V5.75Zm-387.08 95.365L32.68 61.385 17.628 76.842v24.272H0V6.195h17.628v48.68l46.918-48.68h19.797L44.477 48.638l42.307 52.477H66.173Z"/>
  <path fill="#000" d="M155.273 65.317c0 1.356-.136 3.39-.272 5.017H98.185c2.034 10.577 10.848 17.357 23.459 17.357 8.136 0 14.509-2.577 19.662-7.865l9.085 10.441c-6.509 7.73-16.679 11.797-29.154 11.797-24.272 0-40.002-15.594-40.002-37.154 0-21.56 15.865-37.019 37.426-37.019 21.153 0 36.612 14.78 36.612 37.426ZM118.661 41.45c-10.984 0-18.984 7.051-20.612 17.628h41.087c-1.356-10.441-9.356-17.628-20.475-17.628Zm62.25-2.168c4.881-7.594 13.695-11.39 25.764-11.39v16.136c-1.492-.272-2.712-.407-3.933-.407-12.882 0-21.018 7.593-21.018 22.374v35.12h-16.95v-72.41h16.137v10.577Zm74.449-11.391c17.357 0 30.239 9.899 30.239 31.73v41.494h-16.95V61.791c0-12.882-6.373-19.12-17.221-19.12-12.069 0-20.205 7.323-20.205 21.832v36.612h-16.95v-72.41h16.137v9.356c5.559-6.644 14.373-10.17 24.95-10.17Zm113.694 37.426c0 1.356-.135 3.39-.271 5.017h-56.816c2.034 10.577 10.848 17.357 23.459 17.357 8.136 0 14.509-2.577 19.662-7.865l9.085 10.441c-6.509 7.73-16.679 11.797-29.154 11.797-24.273 0-40.002-15.594-40.002-37.154 0-21.56 15.865-37.019 37.425-37.019 21.154 0 36.612 14.78 36.612 37.426ZM332.442 41.45c-10.983 0-18.984 7.051-20.611 17.628h41.087c-1.356-10.441-9.356-17.628-20.476-17.628Zm46.114 59.665V.5h16.95v100.615h-16.95Zm154.722 0V.5h16.95v100.615h-16.95Zm60.079-73.224c20.882 0 32.951 9.899 32.951 30.781v42.443h-16.001v-8.814c-4.068 6.238-11.933 9.763-22.781 9.763-16.543 0-26.984-9.085-26.984-21.696 0-12.068 8.136-21.56 30.103-21.56h18.713v-1.085c0-9.899-5.967-15.73-18.035-15.73-8.136 0-16.543 2.713-21.967 7.187l-6.645-12.34c7.73-5.966 18.984-8.949 30.646-8.949Zm-2.305 61.834c8.271 0 15.458-3.797 18.306-11.255v-8.407h-17.493c-11.526 0-14.644 4.339-14.644 9.627 0 6.102 5.152 10.035 13.831 10.035Zm100.433-61.02h16.272l-33.9 78.241c-6.645 16.408-15.865 21.425-27.934 21.425-7.187 0-14.78-2.441-19.391-6.645l6.78-12.475c3.255 3.119 7.865 5.017 12.476 5.017 5.966 0 9.492-2.847 12.746-10.034l1.22-2.848-31.594-72.681h17.628l22.78 53.562 22.917-53.562Z"/>
  <mask id="a" width="68" height="74" x="453" y="5" maskUnits="userSpaceOnUse" style="mask-type:alpha">
    <path fill="#000" d="M453.254 5.75h67.5v72.5h-67.5z"/>
  </mask>
  <g mask="url(#a)">
    <path fill="url(#b)" d="M474.699 76h-.195v-.001l.195.001Z"/>
    <path fill="url(#c)" d="M487.004 8.5c18.64 0 33.75 15.11 33.75 33.75S505.644 76 487.004 76h-12.305c18.64 0 33.75-15.11 33.75-33.75S493.339 8.5 474.699 8.5l-.195.001V8.5h12.5Z"/>
    <circle cx="474.699" cy="42.25" r="33.75" fill="#FEC745"/>
    <circle cx="474.699" cy="42.25" r="33.75" fill="url(#d)" fill-opacity=".3" style="mix-blend-mode:overlay"/>
    <circle cx="474.699" cy="42.25" r="33.75" fill="url(#e)"/>
    <path fill="url(#f)" fill-rule="evenodd" d="M474.629 69.082c-14.843 0-26.875-12.032-26.875-26.875s12.032-26.875 26.875-26.875 26.875 12.032 26.875 26.875-12.032 26.875-26.875 26.875Zm0-50.25c12.91 0 23.375 10.465 23.375 23.375s-10.465 23.375-23.375 23.375-23.375-10.465-23.375-23.375 10.465-23.375 23.375-23.375Z" clip-rule="evenodd"/>
    <path fill="url(#g)" d="M453.254 5.75V101h4V5.75h-4Z" opacity=".3"/>
  </g>
  <defs>
    <linearGradient id="b" x1="497.629" x2="497.629" y1="8.5" y2="76" gradientUnits="userSpaceOnUse">
      <stop stop-color="#FFCA4E"/>
      <stop offset=".5" stop-color="#FFB301"/>
      <stop offset="1" stop-color="#BA7001"/>
    </linearGradient>
    <linearGradient id="c" x1="497.629" x2="497.629" y1="8.5" y2="76" gradientUnits="userSpaceOnUse">
      <stop stop-color="#FFCA4E"/>
      <stop offset=".5" stop-color="#FFB301"/>
      <stop offset="1" stop-color="#BA7001"/>
    </linearGradient>
    <linearGradient id="d" x1="474.699" x2="474.699" y1="8.5" y2="76" gradientUnits="userSpaceOnUse">
      <stop offset=".043" stop-color="#fff"/>
      <stop offset="1"/>
    </linearGradient>
    <linearGradient id="e" x1="474.699" x2="474.699" y1="8.5" y2="76" gradientUnits="userSpaceOnUse">
      <stop stop-color="#FED85A"/>
      <stop offset="1" stop-color="#FEB833"/>
    </linearGradient>
    <linearGradient id="f" x1="474.629" x2="474.629" y1="15.332" y2="69.082" gradientUnits="userSpaceOnUse">
      <stop stop-color="#FFC300"/>
      <stop offset="1" stop-color="#FF9E00"/>
    </linearGradient>
    <linearGradient id="g" x1="453.254" x2="457.254" y1="53.375" y2="53.375" gradientUnits="userSpaceOnUse">
      <stop/>
      <stop offset=".327" stop-opacity=".472"/>
      <stop offset=".688" stop-opacity=".135"/>
      <stop offset="1" stop-opacity="0"/>
    </linearGradient>
  </defs>
</svg>
